<?xml version="1.0" standalone="no"?>
<!DOCTYPE svg PUBLIC "-//W3C//DTD SVG 20010904//EN"
 "http://www.w3.org/TR/2001/REC-SVG-20010904/DTD/svg10.dtd">
<svg version="1.0" xmlns="http://www.w3.org/2000/svg"
 width="248.000000pt" height="248.000000pt" viewBox="0 0 248.000000 248.000000"
 preserveAspectRatio="xMidYMid meet">
<metadata>
Created by potrace 1.11, written by Peter Selinger 2001-2013
</metadata>
<g transform="translate(0.000000,248.000000) scale(0.100000,-0.100000)"
fill="#000000" stroke="none">
<path d="M484 2343 c5 -9 -2 -13 -25 -13 -25 0 -30 -3 -21 -12 9 -9 9 -15 0
-26 -9 -10 -9 -15 1 -22 9 -5 10 -10 2 -14 -6 -4 -11 -12 -11 -17 0 -6 6 -7
13 -3 9 6 9 4 -1 -8 -9 -11 -10 -18 -2 -23 6 -3 8 -10 5 -15 -7 -12 37 -9 53
3 9 7 11 5 6 -8 -6 -14 -4 -16 7 -9 8 4 22 7 33 5 12 -2 16 2 11 11 -3 7 0 5
8 -4 8 -10 16 -16 18 -14 2 3 3 -30 2 -71 -1 -56 1 -73 10 -64 13 13 31 15 23
3 -3 -5 1 -9 9 -9 8 0 12 4 9 9 -3 4 0 8 5 8 6 0 11 -6 11 -12 0 -9 4 -8 10 2
8 12 10 12 10 1 0 -9 4 -10 13 -4 21 17 44 11 43 -11 -1 -12 -6 -27 -10 -35
-6 -10 -5 -12 2 -7 8 5 12 -2 12 -19 0 -18 -4 -24 -12 -19 -10 6 -10 5 -1 -7
13 -16 12 -87 -1 -108 -6 -10 -5 -12 2 -7 8 5 12 -2 12 -19 0 -18 -4 -24 -12
-19 -10 6 -10 4 -2 -7 15 -19 15 -152 0 -161 -8 -5 -7 -8 3 -8 10 0 11 -3 2
-14 -9 -11 -9 -16 0 -22 8 -5 9 -3 4 6 -5 8 -4 11 3 7 5 -4 8 -16 5 -27 -3
-11 -10 -17 -17 -13 -6 4 -5 -1 3 -11 12 -14 13 -21 2 -38 -10 -16 -10 -18 0
-12 8 5 11 2 6 -8 -3 -9 0 -21 6 -28 9 -10 9 -11 0 -6 -10 5 -11 -1 -6 -25 4
-21 2 -34 -8 -40 -12 -7 -12 -9 0 -9 11 0 11 -3 0 -17 -10 -11 -10 -14 -1 -9
20 12 14 -10 -10 -30 -12 -10 -18 -14 -15 -8 5 8 -7 11 -41 9 -26 -1 -50 3
-54 9 -5 7 -8 5 -9 -6 -3 -31 -4 -36 -12 -44 -4 -4 1 -16 10 -27 10 -11 12
-17 6 -13 -9 5 -12 -1 -9 -24 2 -21 -2 -33 -13 -39 -15 -8 -91 -6 -119 4 -9 3
-10 0 -2 -15 8 -16 8 -18 -4 -14 -10 4 -13 0 -11 -13 2 -10 4 -18 5 -18 1 0 3
-8 5 -18 2 -9 -1 -15 -6 -11 -5 3 -9 0 -9 -5 0 -6 5 -11 12 -11 9 0 9 -3 0
-12 -14 -14 -16 -32 -3 -23 6 3 8 -4 5 -15 -2 -11 -6 -29 -8 -40 -3 -11 -1
-18 4 -15 9 6 8 -14 -3 -31 -3 -6 -3 -14 0 -18 10 -10 11 -56 1 -50 -12 8 -10
-10 4 -24 9 -9 9 -12 0 -12 -7 0 -12 -5 -12 -11 0 -5 3 -8 8 -6 4 3 7 -8 7
-23 1 -16 -3 -26 -7 -24 -4 3 -8 0 -8 -5 0 -6 5 -11 11 -11 8 0 9 -4 0 -13 -6
-8 -8 -17 -4 -21 4 -3 8 -17 10 -29 2 -17 1 -19 -7 -7 -7 12 -9 10 -7 -7 0
-12 4 -20 7 -18 3 2 6 -5 6 -15 0 -10 -4 -16 -8 -14 -16 10 -8 -9 10 -22 16
-13 16 -14 -3 -8 -15 4 -17 4 -6 -4 8 -6 23 -9 33 -7 10 2 18 -1 18 -7 0 -7 7
-3 16 8 8 10 13 13 9 7 -6 -13 16 -18 58 -13 16 1 17 -2 9 -17 -8 -13 -6 -23
6 -37 9 -11 12 -16 5 -13 -14 9 -13 -67 1 -80 5 -5 6 -3 2 5 -9 15 10 16 19 2
5 -8 11 -7 21 1 8 6 14 7 14 2 0 -5 7 -10 15 -10 8 0 12 4 9 9 -3 4 0 8 5 8 6
0 11 -6 11 -12 0 -10 2 -10 8 -1 5 8 12 2 21 -18 11 -25 11 -32 -1 -46 -11
-14 -11 -16 1 -8 11 6 13 4 8 -7 -3 -9 0 -21 6 -28 9 -10 9 -11 0 -6 -16 9
-16 1 -3 -23 12 -24 45 -38 36 -16 -4 13 -2 14 14 5 13 -7 21 -7 25 0 5 8 11
8 19 1 9 -7 16 -7 25 2 7 6 12 8 11 2 -5 -21 0 -46 8 -41 4 2 8 -4 8 -14 0
-10 -4 -16 -8 -14 -11 7 -10 -4 3 -28 9 -16 8 -19 -2 -13 -9 6 -11 3 -6 -9 4
-10 7 -22 7 -27 0 -6 4 -8 9 -5 5 4 12 0 14 -6 4 -10 6 -10 6 0 1 6 7 12 15
12 8 0 17 -6 19 -12 4 -10 6 -10 6 0 1 16 28 16 34 0 4 -10 6 -10 6 0 1 16 28
16 34 0 4 -10 6 -10 6 0 1 6 6 12 12 12 5 0 7 -6 3 -13 -6 -9 -4 -9 7 1 7 6
17 12 22 12 4 0 5 -6 1 -12 -5 -9 -2 -9 9 1 14 11 17 11 17 0 0 -10 3 -10 12
-1 15 15 31 16 22 0 -5 -7 -3 -8 7 -3 22 14 60 15 52 2 -4 -8 -1 -7 9 1 13 10
17 10 21 0 4 -10 6 -10 6 0 1 16 28 16 34 0 4 -10 6 -10 6 0 1 16 28 16 34 0
4 -10 6 -10 6 0 1 16 28 16 34 0 4 -10 6 -10 6 0 1 6 6 12 12 12 5 0 7 -6 3
-12 -6 -10 -4 -11 7 0 7 6 17 12 22 12 4 0 5 -6 1 -12 -5 -9 -2 -9 9 1 14 11
17 11 17 0 0 -10 3 -10 12 -1 15 15 31 16 22 0 -5 -7 -3 -8 7 -3 17 11 61 16
55 6 -3 -4 1 -8 9 -8 8 0 12 4 9 9 -3 4 -1 8 5 8 5 0 13 -4 16 -10 3 -5 12
-10 18 -10 7 0 6 4 -3 11 -12 8 -8 9 15 7 20 -2 29 1 27 10 -1 6 2 12 8 12 5
0 10 5 10 11 0 5 -4 8 -9 4 -5 -3 -12 -1 -15 4 -3 5 1 11 9 15 8 3 15 11 15
18 0 9 -3 8 -10 -2 -8 -12 -10 -10 -10 8 0 13 4 21 9 18 5 -4 7 3 4 14 -5 20
8 26 46 21 8 -2 10 2 5 11 -6 11 -5 11 8 0 11 -9 18 -10 23 -2 3 6 12 7 18 3
19 -12 38 -12 30 0 -4 7 0 8 12 3 18 -7 18 -6 1 13 -10 11 -13 21 -7 25 6 4 6
18 1 36 -5 18 -5 32 1 36 6 3 5 12 -3 22 -10 12 -10 14 0 8 7 -4 12 -2 12 6 0
10 3 9 11 -2 8 -11 12 -12 16 -2 2 6 10 9 16 5 19 -12 41 -13 54 -1 7 5 19 8
26 5 17 -6 20 32 4 52 -8 10 -8 12 -1 8 7 -4 12 2 12 18 0 14 -5 22 -11 18 -6
-4 -7 -1 -2 8 12 18 17 71 7 65 -5 -3 -9 1 -9 9 0 8 4 12 9 9 4 -3 8 4 8 16 0
14 -4 19 -12 14 -7 -4 -4 3 7 16 11 13 14 20 7 16 -10 -6 -12 2 -7 39 3 25 1
44 -3 41 -5 -3 -9 1 -9 9 0 8 4 12 9 9 4 -3 8 4 8 16 0 14 -4 19 -12 14 -7 -4
-4 3 7 16 11 13 14 20 7 16 -10 -6 -12 2 -7 39 3 25 1 44 -3 41 -5 -3 -9 1 -9
9 0 8 4 12 9 9 4 -3 8 4 8 16 0 14 -4 19 -12 14 -7 -4 -4 3 7 16 11 13 14 20
7 16 -10 -6 -12 2 -7 39 3 25 1 44 -3 41 -5 -3 -9 1 -9 9 0 8 4 12 9 9 4 -3 8
4 8 16 0 14 -4 19 -12 14 -7 -4 -4 3 7 16 11 13 15 20 8 17 -14 -9 -15 52 -1
70 5 7 5 14 -2 18 -6 3 -8 10 -5 15 3 4 -2 11 -11 14 -10 4 -14 12 -10 22 5
13 3 14 -6 7 -7 -6 -23 -9 -36 -7 -13 2 -21 0 -18 -4 3 -5 -1 -9 -9 -9 -8 0
-12 4 -9 9 3 4 0 8 -5 8 -6 0 -11 -5 -11 -11 0 -6 -7 -3 -16 6 -11 10 -15 27
-12 50 2 19 0 35 -5 35 -4 0 -5 5 -2 10 4 6 12 7 18 3 8 -4 7 -1 -1 9 -15 18
-19 68 -8 87 4 6 2 11 -4 11 -6 0 -8 5 -5 10 4 6 12 7 18 3 8 -4 7 -1 -1 9
-15 18 -19 68 -8 87 4 6 2 11 -4 11 -6 0 -8 5 -3 13 12 20 12 37 0 37 -7 0 -5
5 3 10 8 5 10 10 4 10 -8 0 -9 13 -4 40 4 22 4 40 -1 40 -4 0 -4 14 1 30 6 21
5 30 -3 30 -7 0 -6 4 3 10 8 5 10 10 4 10 -8 0 -9 13 -4 40 4 23 3 40 -2 40
-5 0 -7 4 -4 8 3 5 6 25 8 45 1 20 5 34 9 31 4 -2 10 2 13 8 5 10 7 10 12 0 5
-10 9 -10 20 -1 11 9 14 8 14 -2 0 -11 2 -11 10 1 9 13 10 13 10 0 0 -13 1
-13 11 0 8 11 12 12 16 3 3 -10 8 -10 19 1 17 17 19 30 2 20 -7 -5 -8 -3 -2 7
12 19 12 30 1 53 -6 13 -6 16 2 12 15 -10 14 17 -1 33 -8 9 -9 11 -1 7 11 -6
11 53 -1 73 -4 5 -1 13 5 17 8 5 9 3 4 -6 -6 -9 -4 -11 4 -5 9 5 9 11 3 17 -6
6 -8 17 -5 26 5 11 3 13 -8 7 -11 -7 -12 -6 -2 6 10 12 8 17 -9 28 -11 7 -17
8 -13 2 3 -6 1 -11 -4 -11 -6 0 -11 5 -11 10 0 6 -5 10 -11 10 -5 0 -7 -4 -4
-10 3 -5 -1 -10 -9 -10 -9 0 -16 6 -16 13 0 8 -4 7 -10 -3 -8 -12 -10 -12 -10
-1 0 10 -3 11 -14 2 -10 -8 -16 -9 -21 -1 -3 5 -12 10 -18 10 -7 0 -6 -4 3
-10 12 -8 11 -10 -7 -10 -13 0 -23 4 -23 8 0 4 -9 8 -19 8 -11 0 -17 -4 -15
-8 3 -4 -2 -8 -10 -8 -9 0 -16 5 -16 12 0 9 -3 9 -12 0 -15 -15 -54 -16 -63
-2 -3 6 -12 10 -18 10 -7 0 -6 -4 3 -10 13 -8 13 -10 -2 -10 -9 0 -20 5 -23
10 -3 6 -12 10 -18 10 -7 0 -6 -4 3 -10 13 -8 13 -10 -2 -10 -9 0 -20 5 -23
10 -3 6 -12 10 -18 10 -7 0 -6 -4 3 -10 13 -9 13 -10 0 -10 -9 0 -22 6 -29 13
-11 10 -13 10 -7 0 4 -7 2 -13 -3 -13 -6 0 -11 5 -11 11 0 8 -4 8 -14 0 -10
-8 -16 -9 -21 -1 -3 5 -12 10 -18 10 -7 0 -6 -4 3 -10 12 -8 11 -10 -7 -10
-12 0 -24 6 -26 13 -4 9 -6 8 -6 -2 -1 -11 -4 -11 -18 0 -10 8 -14 9 -10 2 4
-6 2 -15 -4 -19 -9 -5 -7 -11 6 -21 17 -12 17 -13 2 -13 -22 0 -22 -16 -1 -28
15 -8 15 -10 0 -15 -13 -5 -15 -11 -6 -26 16 -30 -13 -42 -104 -41 -27 1 -74
19 -49 20 7 0 10 12 8 30 -3 22 -1 29 8 23 9 -5 9 -3 0 9 -7 8 -10 18 -6 21 3
4 1 7 -6 7 -7 0 -9 5 -6 10 4 6 11 8 16 5 5 -3 6 1 3 9 -5 14 -25 26 -52 32
-6 1 -10 -2 -6 -7 3 -5 1 -9 -5 -9 -5 0 -13 5 -16 10 -3 6 -12 10 -18 10 -7 0
-6 -4 3 -10 13 -8 13 -10 -2 -10 -9 0 -20 5 -23 10 -3 6 -12 10 -18 10 -7 0
-6 -4 3 -10 13 -8 13 -10 -2 -10 -9 0 -20 5 -23 10 -3 6 -12 10 -18 10 -7 0
-6 -4 3 -10 13 -9 13 -10 -1 -10 -8 0 -21 6 -28 13 -11 10 -13 10 -7 0 4 -7 2
-13 -3 -13 -6 0 -11 5 -11 11 0 8 -4 8 -14 0 -10 -8 -16 -9 -21 -1 -3 5 -12
10 -18 10 -7 0 -6 -4 3 -10 12 -8 11 -10 -7 -10 -13 0 -23 4 -23 8 0 4 -9 8
-19 8 -11 0 -17 -4 -15 -8 3 -4 -2 -8 -10 -8 -9 0 -16 5 -16 12 0 9 -3 9 -12
0 -13 -13 -48 -16 -48 -4 0 4 -9 8 -19 8 -11 0 -17 -4 -15 -8 3 -4 -2 -8 -10
-8 -9 0 -16 5 -16 12 0 9 -3 9 -12 0 -15 -15 -54 -16 -63 -2 -3 6 -12 10 -18
10 -7 0 -6 -4 3 -10 13 -8 13 -10 -2 -10 -9 0 -20 5 -23 10 -3 6 -12 10 -18
10 -7 0 -6 -4 3 -10 13 -8 13 -10 -2 -10 -9 0 -20 5 -23 10 -3 6 -12 10 -18
10 -7 0 -6 -4 3 -10 13 -9 13 -10 0 -10 -9 0 -22 6 -29 13 -11 10 -13 10 -7 0z"/>
<path d="M545 1180 c-3 -6 1 -7 9 -4 18 7 21 14 7 14 -6 0 -13 -4 -16 -10z"/>
</g>
</svg>
